<svg width="256" height="256" viewBox="0 0 256 256" fill="none" xmlns="http://www.w3.org/2000/svg">
<path opacity="0.6" d="M59.9561 73.6718C59.9561 66.6499 65.6484 60.9575 72.6703 60.9575H182.331C189.352 60.9575 195.045 66.6499 195.045 73.6718V183.332C195.045 190.354 189.352 196.046 182.331 196.046H72.6703C65.6484 196.046 59.9561 190.354 59.9561 183.332V73.6718Z" fill="#FF0093"/>
<path opacity="0.5" d="M84.9131 98.6254C84.9131 91.6035 90.6054 85.9111 97.6273 85.9111H207.288C214.309 85.9111 220.002 91.6035 220.002 98.6254V208.286C220.002 215.308 214.309 221 207.288 221H97.6273C90.6054 221 84.9131 215.308 84.9131 208.286V98.6254Z" fill="#FF0093"/>
<path opacity="0.9" d="M35 48.7142C35 41.6924 40.6924 36 47.7142 36H157.375C164.396 36 170.089 41.6924 170.089 48.7142V158.375C170.089 165.396 164.396 171.089 157.375 171.089H47.7142C40.6924 171.089 35 165.396 35 158.375V48.7142Z" fill="#FF0093"/>
</svg>
