<svg width="724" height="336" viewBox="-168 -119 724 336" fill="none" xmlns="http://www.w3.org/2000/svg">
<path d="M117.663 64.925C116.965 64.925 116.4 64.333 116.4 63.6026V30.7223C116.4 29.992 116.965 29.4 117.663 29.4H122.597C123.295 29.4 123.86 29.992 123.86 30.7223V58.3239H138.288C138.985 58.3239 139.551 58.9159 139.551 59.6462V63.6026C139.551 64.333 138.985 64.925 138.288 64.925H117.663Z" fill="#0B1123"/>
<path d="M152.546 66.15C150.725 66.15 149.119 65.7983 147.728 65.0949C146.337 64.3914 145.227 63.4368 144.399 62.231C143.603 61.0251 143.206 59.6685 143.206 58.1613C143.206 56.3859 143.67 54.9623 144.597 53.8904C145.525 52.8186 147.031 52.0649 149.119 51.6295C151.205 51.1604 153.971 50.926 157.415 50.926H158.358C158.825 50.926 159.203 50.5436 159.203 50.0719C159.203 48.5981 158.872 47.5596 158.21 46.9568C157.548 46.3203 156.421 46.0021 154.831 46.0021C153.507 46.0021 152.099 46.2198 150.608 46.6553C149.591 46.9362 148.572 47.3233 147.554 47.8169C146.843 48.1611 145.974 47.8591 145.677 47.121L144.603 44.4451C144.369 43.8611 144.574 43.1857 145.122 42.8864C145.778 42.5294 146.513 42.1945 147.33 41.8821C148.588 41.4131 149.896 41.0615 151.254 40.8269C152.613 40.5589 153.904 40.425 155.129 40.425C158.906 40.425 161.721 41.2959 163.575 43.0376C165.43 44.746 166.357 47.4089 166.357 51.0265V64.2788C166.357 65.0071 165.773 65.5974 165.054 65.5974H160.656C159.936 65.5974 159.352 65.0071 159.352 64.2788V61.8793C158.856 63.1856 158.011 64.224 156.819 64.9944C155.66 65.7648 154.235 66.15 152.546 66.15ZM154.235 61.0754C155.626 61.0754 156.801 60.5897 157.763 59.6183C158.723 58.6469 159.203 57.3907 159.203 55.8499C159.203 55.295 158.758 54.8451 158.21 54.8451H157.465C154.914 54.8451 153.109 55.0796 152.049 55.5485C150.989 55.984 150.46 56.7544 150.46 57.8598C150.46 58.7976 150.774 59.568 151.403 60.171C152.066 60.7739 153.009 61.0754 154.235 61.0754Z" fill="#0B1123"/>
<path d="M175.296 73.5C174.376 73.5 173.764 72.528 174.144 71.6717L177.861 63.2965L168.901 42.2347C168.537 41.3804 169.149 40.425 170.06 40.425H174.93C175.449 40.425 175.915 40.7498 176.105 41.244L181.715 55.8042L187.513 41.2308C187.706 40.7436 188.169 40.425 188.684 40.425H193.117C194.031 40.425 194.643 41.3869 194.272 42.242L181.085 72.7301C180.882 73.1981 180.429 73.5 179.929 73.5H175.296Z" fill="#0B1123"/>
<path d="M210.32 66.15C207.261 66.15 204.622 65.6309 202.407 64.5925C200.226 63.5206 198.537 62.03 197.342 60.1207C196.181 58.1779 195.601 55.9002 195.601 53.2875C195.601 50.7418 196.163 48.5143 197.289 46.605C198.449 44.6623 200.014 43.1549 201.984 42.083C203.99 40.9776 206.293 40.425 208.896 40.425C212.66 40.425 215.649 41.5639 217.866 43.8416C220.081 46.0858 221.189 49.134 221.189 52.986V53.5768C221.189 54.305 220.57 54.8953 219.804 54.8953H203.198C203.479 56.8381 204.217 58.2617 205.414 59.1661C206.645 60.037 208.334 60.4724 210.479 60.4724C211.886 60.4724 213.31 60.2715 214.752 59.8695C215.591 59.6357 216.382 59.3284 217.125 58.9475C217.932 58.5343 218.99 58.813 219.328 59.6237L220.38 62.1531C220.608 62.7039 220.427 63.3386 219.901 63.6552C218.776 64.3334 217.464 64.897 215.966 65.3461C214.102 65.882 212.22 66.15 210.32 66.15ZM209.213 45.4494C207.525 45.4494 206.152 45.9351 205.098 46.9064C204.078 47.8779 203.445 49.2344 203.198 50.9763H214.595C214.383 47.2916 212.59 45.4494 209.213 45.4494Z" fill="#0B1123"/>
<path d="M226.125 64.925C225.417 64.925 224.844 64.3519 224.844 63.645V42.2553C224.844 41.5483 225.417 40.9753 226.125 40.9753H230.79C231.499 40.9753 232.072 41.5483 232.072 42.2553V45.1214C233.212 42.3247 235.654 40.7802 239.399 40.4875L240.272 40.428C240.977 40.38 241.588 40.9107 241.637 41.6146L241.899 45.3027C241.948 45.9906 241.442 46.5934 240.756 46.6661L237.835 46.9749C234.188 47.3326 232.365 49.1861 232.365 52.5355V63.645C232.365 64.3519 231.792 64.925 231.084 64.925H226.125Z" fill="#0B1123"/>
<path d="M253.847 66.15C251.62 66.15 249.547 65.8988 247.628 65.3964C246.125 65.0033 244.824 64.4976 243.721 63.8791C243.191 63.5818 242.993 62.9462 243.204 62.3854L244.126 59.9325C244.42 59.1481 245.379 58.8278 246.148 59.1928C247.035 59.6135 247.99 59.9729 249.015 60.2715C250.66 60.7069 252.288 60.9247 253.899 60.9247C255.338 60.9247 256.401 60.7069 257.086 60.2715C257.771 59.8025 258.114 59.1996 258.114 58.4626C258.114 57.2903 257.24 56.5533 255.492 56.252L250.095 55.2973C247.936 54.9288 246.29 54.1751 245.159 53.0363C244.029 51.8974 243.463 50.4069 243.463 48.5646C243.463 46.8898 243.943 45.4494 244.903 44.2436C245.862 43.0377 247.182 42.0998 248.861 41.4298C250.54 40.76 252.476 40.425 254.67 40.425C256.487 40.425 258.251 40.6594 259.965 41.1284C261.322 41.4735 262.53 41.9869 263.587 42.6684C264.078 42.9856 264.239 43.6033 264.025 44.1394L263.072 46.5165C262.749 47.3225 261.728 47.6116 260.943 47.2108C260.27 46.867 259.532 46.5645 258.731 46.3036C257.325 45.8346 256.007 45.6001 254.773 45.6001C253.23 45.6001 252.117 45.8514 251.431 46.3538C250.746 46.8227 250.403 47.4257 250.403 48.1626C250.403 49.335 251.209 50.0719 252.82 50.3733L258.217 51.328C260.445 51.6965 262.141 52.4334 263.306 53.5388C264.472 54.6106 265.054 56.0844 265.054 57.9602C265.054 60.5395 264.026 62.5492 261.97 63.9895C259.913 65.4299 257.206 66.15 253.847 66.15Z" fill="#0B1123"/>
<path d="M276.369 64.925C275.844 64.925 275.37 64.6026 275.171 64.1096L266.369 42.2283C266.023 41.3671 266.648 40.425 267.567 40.425H272.285C272.824 40.425 273.308 40.7654 273.497 41.2784L278.95 56.1429L284.402 41.2784C284.59 40.7654 285.074 40.425 285.615 40.425H288.741C289.283 40.425 289.768 40.7678 289.955 41.2835L295.409 56.3425L300.865 41.2835C301.051 40.7678 301.536 40.425 302.078 40.425H306.405C307.323 40.425 307.948 41.3635 307.605 42.2241L298.89 64.1053C298.693 64.6007 298.219 64.925 297.691 64.925H293.142C292.607 64.925 292.128 64.5925 291.936 64.0883L286.933 51.0033L282.074 64.0768C281.885 64.5871 281.402 64.925 280.863 64.925H276.369Z" fill="#0B1123"/>
<path d="M318.986 66.15C317.26 66.15 315.738 65.7983 314.42 65.0949C313.103 64.3914 312.051 63.4368 311.267 62.231C310.514 61.0251 310.137 59.6685 310.137 58.1613C310.137 56.3859 310.576 54.9623 311.455 53.8904C312.334 52.8186 313.761 52.0649 315.738 51.6295C317.714 51.1604 320.335 50.926 323.598 50.926H325.293V50.0719C325.293 48.5981 324.979 47.5596 324.351 46.9568C323.724 46.3203 322.657 46.0021 321.15 46.0021C319.896 46.0021 318.562 46.2198 317.151 46.6553C316.186 46.9362 315.221 47.3233 314.256 47.8169C313.583 48.1611 312.759 47.8591 312.479 47.121L311.461 44.4451C311.239 43.8611 311.433 43.1857 311.953 42.8864C312.573 42.5294 313.27 42.1945 314.043 41.8821C315.237 41.4131 316.475 41.0615 317.762 40.8269C319.048 40.5589 320.272 40.425 321.433 40.425C325.01 40.425 327.677 41.2959 329.434 43.0376C331.191 44.746 332.07 47.4089 332.07 51.0265V64.2788C332.07 65.0071 331.517 65.5974 330.835 65.5974H326.668C325.987 65.5974 325.433 65.0071 325.433 64.2788V61.8793C324.963 63.1856 324.163 64.224 323.033 64.9944C321.935 65.7648 320.586 66.15 318.986 66.15ZM320.586 61.0754C321.904 61.0754 323.018 60.5897 323.928 59.6183C324.837 58.6469 325.293 57.3907 325.293 55.8499V54.8451H323.645C321.229 54.8451 319.519 55.0796 318.515 55.5485C317.511 55.984 317.009 56.7544 317.009 57.8598C317.009 58.7976 317.307 59.568 317.903 60.171C318.531 60.7739 319.425 61.0754 320.586 61.0754Z" fill="#0B1123"/>
<path d="M340.616 73.5C339.934 73.5 339.38 72.9294 339.38 72.2256V42.1852C339.38 41.4812 339.934 40.9107 340.616 40.9107H345.109C345.79 40.9107 346.344 41.4812 346.344 42.1852V44.4562C346.97 43.2258 347.927 42.2543 349.213 41.542C350.53 40.7973 352.004 40.425 353.635 40.425C355.643 40.425 357.399 40.9268 358.904 41.9306C360.441 42.9344 361.633 44.359 362.48 46.2046C363.327 48.0502 363.75 50.252 363.75 52.8099C363.75 55.3678 363.327 57.5858 362.48 59.4638C361.633 61.3094 360.441 62.7503 358.904 63.7864C357.399 64.7901 355.643 65.2919 353.635 65.2919C352.099 65.2919 350.687 64.952 349.401 64.2721C348.147 63.592 347.174 62.6855 346.484 61.5522V72.2256C346.484 72.9294 345.932 73.5 345.25 73.5H340.616ZM351.518 59.8038C353.024 59.8038 354.247 59.2372 355.187 58.1039C356.129 56.9706 356.599 55.206 356.599 52.8099C356.599 50.4463 356.129 48.714 355.187 47.6131C354.247 46.4799 353.024 45.9132 351.518 45.9132C349.982 45.9132 348.743 46.4799 347.801 47.6131C346.861 48.714 346.391 50.4463 346.391 52.8099C346.391 55.206 346.861 56.9706 347.801 58.1039C348.743 59.2372 349.982 59.8038 351.518 59.8038Z" fill="#0B1123"/>
<path opacity="0.5" d="M43.65 38.9117C43.65 36.3648 45.6937 34.3 48.2147 34.3H87.5853C90.1063 34.3 92.15 36.3648 92.15 38.9117V78.6883C92.15 81.2353 90.1063 83.3 87.5853 83.3H48.2147C45.6937 83.3 43.65 81.2353 43.65 78.6883V38.9117Z" fill="#FF3272"/>
<path opacity="0.6" d="M33.95 29.1118C33.95 26.5647 35.9937 24.5 38.5147 24.5H77.8853C80.4063 24.5 82.45 26.5647 82.45 29.1118V68.8882C82.45 71.4353 80.4063 73.5 77.8853 73.5H38.5147C35.9937 73.5 33.95 71.4353 33.95 68.8882V29.1118Z" fill="#FF3272"/>
<path opacity="0.9" d="M24.25 19.3118C24.25 16.7648 26.2937 14.7 28.8147 14.7H68.1853C70.7063 14.7 72.75 16.7648 72.75 19.3118V59.0882C72.75 61.6353 70.7063 63.7 68.1853 63.7H28.8147C26.2937 63.7 24.25 61.6353 24.25 59.0882V19.3118Z" fill="#FF3272"/>
</svg>
