<svg width="250" height="250" viewBox="0 0 250 250" fill="none" xmlns="http://www.w3.org/2000/svg"><rect width="250" height="250" fill="#FFFFFF"/><g transform="translate(48 48) scale(2.264705882352941)"><path opacity="0.5" d="M19.4 24.2117C19.4 21.6648 21.4437 19.6 23.9647 19.6H63.3353C65.8563 19.6 67.9 21.6648 67.9 24.2117V63.9883C67.9 66.5353 65.8563 68.6 63.3353 68.6H23.9647C21.4437 68.6 19.4 66.5353 19.4 63.9883V24.2117Z" fill="#FF3272"/><path opacity="0.6" d="M9.7 14.4118C9.7 11.8647 11.7437 9.79999 14.2647 9.79999H53.6353C56.1563 9.79999 58.2 11.8647 58.2 14.4118V54.1882C58.2 56.7352 56.1563 58.8 53.6353 58.8H14.2647C11.7437 58.8 9.7 56.7352 9.7 54.1882V14.4118Z" fill="#FF3272"/><path opacity="0.9" d="M0 4.61177C0 2.06476 2.04369 0 4.56471 0H43.9353C46.4563 0 48.5 2.06476 48.5 4.61177V44.3882C48.5 46.9353 46.4563 49 43.9353 49H4.56471C2.04369 49 0 46.9353 0 44.3882V4.61177Z" fill="#FF3272"/></g></svg>